<svg width="861" height="131" viewBox="0 0 861 131" fill="none" xmlns="http://www.w3.org/2000/svg">
<path d="M9.12 106V23.68H69.84V38.32H27V58.72H65.28V73.24H27V106H9.12ZM107.501 107.44C100.621 107.44 94.7813 106.28 89.9813 103.96C85.1813 101.56 81.5413 97.92 79.0613 93.04C76.5813 88.08 75.3413 81.88 75.3413 74.44C75.3413 66.84 76.5813 60.64 79.0613 55.84C81.5413 50.96 85.1813 47.36 89.9813 45.04C94.7813 42.64 100.621 41.44 107.501 41.44C114.541 41.44 120.421 42.64 125.141 45.04C129.941 47.36 133.581 50.96 136.061 55.84C138.541 60.64 139.781 66.84 139.781 74.44C139.781 81.88 138.541 88.08 136.061 93.04C133.581 97.92 129.941 101.56 125.141 103.96C120.421 106.28 114.541 107.44 107.501 107.44ZM107.501 94.48C111.181 94.48 114.101 93.8 116.261 92.44C118.501 91.08 120.141 89 121.181 86.2C122.221 83.4 122.741 79.96 122.741 75.88V73C122.741 68.92 122.221 65.48 121.181 62.68C120.141 59.88 118.501 57.8 116.261 56.44C114.101 55 111.181 54.28 107.501 54.28C103.901 54.28 100.981 55 98.7413 56.44C96.5813 57.8 94.9813 59.88 93.9413 62.68C92.9013 65.48 92.3813 68.92 92.3813 73V75.88C92.3813 79.96 92.9013 83.4 93.9413 86.2C94.9813 89 96.5813 91.08 98.7413 92.44C100.981 93.8 103.901 94.48 107.501 94.48ZM179.775 107.44C173.055 107.44 167.415 106.28 162.855 103.96C158.295 101.56 154.815 97.92 152.415 93.04C150.095 88.08 148.935 81.88 148.935 74.44C148.935 66.84 150.095 60.64 152.415 55.84C154.815 50.96 158.295 47.32 162.855 44.92C167.495 42.52 173.135 41.32 179.775 41.32C184.095 41.32 187.975 41.84 191.415 42.88C194.935 43.92 197.975 45.52 200.535 47.68C203.095 49.84 205.015 52.52 206.295 55.72C207.655 58.84 208.335 62.56 208.335 66.88H191.655C191.655 64 191.215 61.64 190.335 59.8C189.455 57.96 188.095 56.56 186.255 55.6C184.495 54.64 182.255 54.16 179.535 54.16C176.335 54.16 173.735 54.88 171.735 56.32C169.735 57.76 168.255 59.88 167.295 62.68C166.335 65.48 165.855 68.96 165.855 73.12V75.88C165.855 79.96 166.335 83.4 167.295 86.2C168.335 89 169.895 91.12 171.975 92.56C174.055 93.92 176.775 94.6 180.135 94.6C182.855 94.6 185.095 94.12 186.855 93.16C188.695 92.2 190.095 90.76 191.055 88.84C192.015 86.92 192.495 84.6 192.495 81.88H208.335C208.335 85.96 207.655 89.6 206.295 92.8C205.015 96 203.095 98.68 200.535 100.84C198.055 103 195.055 104.64 191.535 105.76C188.015 106.88 184.095 107.44 179.775 107.44ZM241.244 107.44C234.844 107.44 229.764 105.68 226.004 102.16C222.244 98.64 220.364 92.96 220.364 85.12V42.88H237.044V82.36C237.044 84.44 237.284 86.2 237.764 87.64C238.244 89 238.924 90.12 239.804 91C240.764 91.88 241.924 92.52 243.284 92.92C244.644 93.32 246.164 93.52 247.844 93.52C250.324 93.52 252.564 92.92 254.564 91.72C256.564 90.52 258.124 88.88 259.244 86.8C260.364 84.64 260.924 82.24 260.924 79.6V42.88H277.604V106H263.924L262.724 97.36H261.884C260.364 99.36 258.564 101.12 256.484 102.64C254.484 104.16 252.204 105.32 249.644 106.12C247.084 107 244.284 107.44 241.244 107.44ZM318.474 107.44C314.074 107.44 310.114 106.96 306.594 106C303.074 105.04 300.074 103.72 297.594 102.04C295.114 100.28 293.194 98.2 291.834 95.8C290.554 93.4 289.914 90.68 289.914 87.64C289.914 87.32 289.914 87 289.914 86.68C289.914 86.36 289.954 86.12 290.034 85.96H306.114C306.114 86.12 306.114 86.28 306.114 86.44C306.114 86.6 306.114 86.76 306.114 86.92C306.194 88.92 306.834 90.56 308.034 91.84C309.234 93.04 310.794 93.92 312.714 94.48C314.714 95.04 316.794 95.32 318.954 95.32C320.874 95.32 322.714 95.16 324.474 94.84C326.314 94.44 327.834 93.76 329.034 92.8C330.314 91.84 330.954 90.6 330.954 89.08C330.954 87.16 330.154 85.68 328.554 84.64C327.034 83.6 324.994 82.76 322.434 82.12C319.954 81.48 317.234 80.76 314.274 79.96C311.554 79.32 308.834 78.6 306.114 77.8C303.394 76.92 300.914 75.8 298.674 74.44C296.514 73.08 294.754 71.32 293.394 69.16C292.034 66.92 291.354 64.12 291.354 60.76C291.354 57.48 292.074 54.64 293.514 52.24C294.954 49.76 296.914 47.72 299.394 46.12C301.954 44.52 304.914 43.36 308.274 42.64C311.714 41.84 315.394 41.44 319.314 41.44C322.994 41.44 326.434 41.84 329.634 42.64C332.834 43.36 335.634 44.48 338.034 46C340.434 47.44 342.314 49.28 343.674 51.52C345.034 53.68 345.714 56.12 345.714 58.84C345.714 59.4 345.714 59.92 345.714 60.4C345.714 60.88 345.674 61.2 345.594 61.36H329.634V60.4C329.634 58.96 329.194 57.76 328.314 56.8C327.434 55.76 326.154 54.96 324.474 54.4C322.874 53.84 320.914 53.56 318.594 53.56C316.994 53.56 315.514 53.68 314.154 53.92C312.874 54.16 311.754 54.52 310.794 55C309.834 55.48 309.074 56.08 308.514 56.8C308.034 57.44 307.794 58.24 307.794 59.2C307.794 60.56 308.354 61.68 309.474 62.56C310.674 63.36 312.234 64.04 314.154 64.6C316.074 65.16 318.194 65.76 320.514 66.4C323.394 67.2 326.394 68 329.514 68.8C332.714 69.52 335.674 70.52 338.394 71.8C341.114 73.08 343.314 74.92 344.994 77.32C346.674 79.64 347.514 82.8 347.514 86.8C347.514 90.64 346.754 93.88 345.234 96.52C343.794 99.16 341.754 101.28 339.114 102.88C336.474 104.48 333.394 105.64 329.874 106.36C326.354 107.08 322.554 107.44 318.474 107.44ZM397.874 107.44C389.314 107.44 381.994 105.96 375.914 103C369.834 99.96 365.194 95.28 361.994 88.96C358.874 82.64 357.314 74.6 357.314 64.84C357.314 50.44 360.834 39.76 367.874 32.8C374.994 25.76 384.994 22.24 397.874 22.24C404.914 22.24 411.234 23.44 416.834 25.84C422.434 28.24 426.834 31.84 430.034 36.64C433.314 41.44 434.954 47.48 434.954 54.76H416.954C416.954 50.92 416.154 47.68 414.554 45.04C413.034 42.4 410.834 40.4 407.954 39.04C405.154 37.6 401.874 36.88 398.114 36.88C392.994 36.88 388.754 37.88 385.394 39.88C382.114 41.88 379.674 44.84 378.074 48.76C376.554 52.6 375.794 57.32 375.794 62.92V66.64C375.794 72.4 376.594 77.24 378.194 81.16C379.794 85 382.194 87.92 385.394 89.92C388.674 91.84 392.874 92.8 397.994 92.8C401.994 92.8 405.474 92.12 408.434 90.76C411.394 89.4 413.674 87.4 415.274 84.76C416.874 82.12 417.674 78.88 417.674 75.04H434.954C434.954 82.32 433.354 88.36 430.154 93.16C427.034 97.96 422.674 101.56 417.074 103.96C411.474 106.28 405.074 107.44 397.874 107.44ZM447.602 106V19.24H464.282V106H447.602ZM508.274 107.44C501.314 107.44 495.474 106.28 490.754 103.96C486.034 101.56 482.474 97.92 480.074 93.04C477.674 88.16 476.474 81.96 476.474 74.44C476.474 66.84 477.674 60.64 480.074 55.84C482.474 50.96 485.994 47.36 490.634 45.04C495.354 42.64 501.114 41.44 507.914 41.44C514.314 41.44 519.714 42.6 524.114 44.92C528.514 47.16 531.834 50.68 534.074 55.48C536.314 60.2 537.434 66.32 537.434 73.84V78.16H493.394C493.554 81.84 494.114 84.96 495.074 87.52C496.114 90.08 497.674 92 499.754 93.28C501.914 94.48 504.754 95.08 508.274 95.08C510.194 95.08 511.914 94.84 513.434 94.36C515.034 93.88 516.394 93.16 517.514 92.2C518.634 91.24 519.514 90.04 520.154 88.6C520.794 87.16 521.114 85.52 521.114 83.68H537.434C537.434 87.68 536.714 91.16 535.274 94.12C533.834 97.08 531.834 99.56 529.274 101.56C526.714 103.48 523.634 104.96 520.034 106C516.514 106.96 512.594 107.44 508.274 107.44ZM493.634 67.6H520.274C520.274 65.2 519.954 63.12 519.314 61.36C518.754 59.6 517.954 58.16 516.914 57.04C515.874 55.92 514.594 55.12 513.074 54.64C511.634 54.08 509.994 53.8 508.154 53.8C505.114 53.8 502.554 54.32 500.474 55.36C498.474 56.32 496.914 57.84 495.794 59.92C494.754 61.92 494.034 64.48 493.634 67.6ZM566.352 107.44C564.272 107.44 562.032 107.2 559.632 106.72C557.312 106.24 555.112 105.4 553.032 104.2C550.952 102.92 549.232 101.12 547.872 98.8C546.592 96.4 545.952 93.36 545.952 89.68C545.952 85.28 546.912 81.64 548.832 78.76C550.752 75.88 553.472 73.64 556.992 72.04C560.592 70.36 564.872 69.2 569.832 68.56C574.792 67.92 580.272 67.6 586.272 67.6V62.92C586.272 61.08 585.952 59.48 585.312 58.12C584.752 56.76 583.712 55.68 582.192 54.88C580.752 54.08 578.712 53.68 576.072 53.68C573.432 53.68 571.272 54 569.592 54.64C567.992 55.28 566.832 56.12 566.112 57.16C565.472 58.12 565.152 59.2 565.152 60.4V61.84H548.952C548.872 61.44 548.832 61.08 548.832 60.76C548.832 60.36 548.832 59.88 548.832 59.32C548.832 55.64 549.952 52.48 552.192 49.84C554.432 47.12 557.592 45.04 561.672 43.6C565.752 42.16 570.512 41.44 575.952 41.44C581.792 41.44 586.672 42.2 590.592 43.72C594.592 45.24 597.632 47.48 599.712 50.44C601.872 53.4 602.952 57.12 602.952 61.6V90.28C602.952 91.72 603.352 92.8 604.152 93.52C605.032 94.16 605.992 94.48 607.032 94.48H610.992V105.4C610.192 105.8 608.952 106.2 607.272 106.6C605.592 107.08 603.552 107.32 601.152 107.32C598.832 107.32 596.752 106.96 594.912 106.24C593.152 105.6 591.672 104.68 590.472 103.48C589.272 102.2 588.432 100.68 587.952 98.92H587.112C585.752 100.6 584.072 102.08 582.072 103.36C580.152 104.64 577.872 105.64 575.232 106.36C572.672 107.08 569.712 107.44 566.352 107.44ZM571.992 94.84C574.232 94.84 576.232 94.52 577.992 93.88C579.752 93.16 581.232 92.24 582.432 91.12C583.632 89.92 584.552 88.48 585.192 86.8C585.912 85.12 586.272 83.32 586.272 81.4V77.92C581.792 77.92 577.792 78.24 574.272 78.88C570.752 79.44 567.952 80.44 565.872 81.88C563.872 83.32 562.872 85.32 562.872 87.88C562.872 89.32 563.232 90.56 563.952 91.6C564.672 92.64 565.712 93.44 567.072 94C568.432 94.56 570.072 94.84 571.992 94.84ZM619.282 106V42.88H633.082L634.402 51.52H635.242C636.682 49.44 638.402 47.64 640.402 46.12C642.482 44.6 644.802 43.44 647.362 42.64C649.922 41.84 652.722 41.44 655.762 41.44C659.922 41.44 663.562 42.2 666.682 43.72C669.802 45.24 672.202 47.64 673.882 50.92C675.642 54.2 676.522 58.48 676.522 63.76V106H659.842V66.4C659.842 64.4 659.602 62.72 659.122 61.36C658.642 59.92 657.922 58.76 656.962 57.88C656.082 56.92 654.962 56.24 653.602 55.84C652.242 55.44 650.722 55.24 649.042 55.24C646.562 55.24 644.322 55.84 642.322 57.04C640.322 58.24 638.762 59.88 637.642 61.96C636.522 64.04 635.962 66.44 635.962 69.16V106H619.282ZM691.469 33.64V19.24H708.149V33.64H691.469ZM691.469 106V42.88H708.149V106H691.469ZM723.461 106V42.88H737.261L738.581 51.52H739.421C740.861 49.44 742.581 47.64 744.581 46.12C746.661 44.6 748.981 43.44 751.541 42.64C754.101 41.84 756.901 41.44 759.941 41.44C764.101 41.44 767.741 42.2 770.861 43.72C773.981 45.24 776.381 47.64 778.061 50.92C779.821 54.2 780.701 58.48 780.701 63.76V106H764.021V66.4C764.021 64.4 763.781 62.72 763.301 61.36C762.821 59.92 762.101 58.76 761.141 57.88C760.261 56.92 759.141 56.24 757.781 55.84C756.421 55.44 754.901 55.24 753.221 55.24C750.741 55.24 748.501 55.84 746.501 57.04C744.501 58.24 742.941 59.88 741.821 61.96C740.701 64.04 740.141 66.44 740.141 69.16V106H723.461ZM805.969 128.56C803.169 128.56 800.529 127.96 798.049 126.76C795.569 125.64 793.569 123.96 792.049 121.72C790.529 119.48 789.769 116.8 789.769 113.68C789.769 110.16 790.769 107.36 792.769 105.28C794.849 103.12 797.169 101.52 799.729 100.48C797.889 99.44 796.369 98.08 795.169 96.4C794.049 94.72 793.489 92.76 793.489 90.52C793.489 87.4 794.609 84.88 796.849 82.96C799.169 80.96 801.809 79.68 804.769 79.12C801.809 77.28 799.489 74.96 797.809 72.16C796.209 69.28 795.409 66.08 795.409 62.56C795.409 58 796.529 54.16 798.769 51.04C801.089 47.92 804.369 45.56 808.609 43.96C812.929 42.28 818.009 41.44 823.849 41.44C826.169 41.44 828.329 41.56 830.329 41.8C832.409 42.04 834.289 42.44 835.969 43C838.929 41.24 840.929 39.32 841.969 37.24C843.089 35.08 843.689 33.36 843.769 32.08H859.249C859.249 35.04 858.689 37.6 857.569 39.76C856.529 41.92 855.009 43.72 853.009 45.16C851.009 46.52 848.609 47.52 845.809 48.16C847.889 49.92 849.489 52.04 850.609 54.52C851.729 57 852.289 59.68 852.289 62.56C852.289 67.04 851.209 70.88 849.049 74.08C846.889 77.2 843.809 79.6 839.809 81.28C835.889 82.96 831.169 83.8 825.649 83.8H816.049C814.129 83.8 812.689 84.16 811.729 84.88C810.769 85.52 810.289 86.48 810.289 87.76C810.289 88.8 810.689 89.72 811.489 90.52C812.369 91.24 813.769 91.6 815.689 91.6H841.969C847.249 91.6 851.449 93.24 854.569 96.52C857.769 99.72 859.369 103.84 859.369 108.88C859.369 112.72 858.369 116.12 856.369 119.08C854.369 122.04 851.609 124.36 848.089 126.04C844.569 127.72 840.529 128.56 835.969 128.56H805.969ZM812.929 117.4H835.129C836.569 117.4 837.849 117.12 838.969 116.56C840.089 116.08 840.969 115.36 841.609 114.4C842.249 113.52 842.569 112.48 842.569 111.28C842.569 109.2 841.929 107.64 840.649 106.6C839.369 105.56 837.769 105.04 835.849 105.04H812.929C811.009 105.04 809.409 105.6 808.129 106.72C806.929 107.84 806.329 109.32 806.329 111.16C806.329 113 806.929 114.48 808.129 115.6C809.409 116.8 811.009 117.4 812.929 117.4ZM823.849 73C827.769 73 830.729 72.12 832.729 70.36C834.809 68.52 835.849 65.92 835.849 62.56C835.849 59.2 834.809 56.64 832.729 54.88C830.729 53.04 827.769 52.12 823.849 52.12C820.009 52.12 817.049 53.04 814.969 54.88C812.969 56.64 811.969 59.2 811.969 62.56C811.969 64.72 812.409 66.6 813.289 68.2C814.169 69.8 815.489 71 817.249 71.8C819.009 72.6 821.209 73 823.849 73Z" fill="white"/>
</svg>
