<?xml version="1.0" encoding="utf-8"?>
<!-- Generator: Adobe Illustrator 15.0.2, SVG Export Plug-In . SVG Version: 6.00 Build 0)  -->
<!DOCTYPE svg PUBLIC "-//W3C//DTD SVG 1.1//EN" "http://www.w3.org/Graphics/SVG/1.1/DTD/svg11.dtd">
<svg version="1.1" id="Vrstva_1" xmlns="http://www.w3.org/2000/svg" xmlns:xlink="http://www.w3.org/1999/xlink" x="0px" y="0px"
	 width="708.067px" height="266.479px" viewBox="0 0 708.067 266.479" enable-background="new 0 0 708.067 266.479"
	 xml:space="preserve">
<g>
	<defs>
		<rect id="SVGID_1_" width="708.067" height="268.022"/>
	</defs>
	<clipPath id="SVGID_2_">
		<use xlink:href="#SVGID_1_"  overflow="visible"/>
	</clipPath>
	<path clip-path="url(#SVGID_2_)" fill="#FAB718" d="M592.81,206.321h39.604l17.916-99.945h25.853l5.495-30.786h-25.838h-39.662
		h-27.173l-5.524,30.786h27.217L592.81,206.321z M699.439,82.735c0-0.4-0.123-0.73-0.283-1.014
		c-0.169-0.269-0.484-0.467-0.905-0.582c-0.131-0.039-0.261-0.071-0.461-0.071c-0.145-0.044-0.359-0.044-0.606-0.044h-1.142v3.413
		h1.303c0.369,0,0.675-0.03,0.922-0.122c0.269-0.069,0.466-0.199,0.635-0.353c0.171-0.168,0.309-0.354,0.392-0.552
		C699.364,83.203,699.439,82.98,699.439,82.735 M701.419,89.832c0,0.068,0,0.1-0.008,0.122c-0.023,0.024-0.031,0.032-0.093,0.071
		c-0.068,0.007-0.13,0.052-0.229,0.052c-0.068,0.024-0.2,0.031-0.353,0.031c-0.139,0-0.255-0.007-0.354-0.031
		c-0.084,0-0.145-0.045-0.192-0.052c-0.061-0.039-0.092-0.054-0.122-0.093c-0.03-0.032-0.053-0.1-0.1-0.176l-0.921-2.379
		c-0.108-0.261-0.2-0.53-0.338-0.737c-0.122-0.223-0.237-0.421-0.423-0.582c-0.168-0.179-0.337-0.284-0.566-0.392
		c-0.201-0.1-0.477-0.124-0.768-0.124h-0.912v4.29c0,0.068-0.018,0.1-0.018,0.122c-0.021,0.024-0.075,0.032-0.129,0.071
		c-0.062,0.007-0.14,0.029-0.208,0.052c-0.101,0.016-0.198,0.031-0.315,0.031c-0.122,0-0.237-0.015-0.328-0.031
		c-0.1-0.023-0.161-0.045-0.231-0.052c-0.029-0.039-0.077-0.047-0.083-0.071c-0.016-0.022-0.016-0.054-0.016-0.122v-9.338
		c0-0.23,0.021-0.376,0.152-0.462c0.078-0.083,0.208-0.107,0.339-0.107h2.14c0.254,0,0.438,0,0.646,0.009
		c0.169,0,0.298,0.037,0.451,0.046c0.407,0.052,0.739,0.176,1.03,0.331c0.322,0.151,0.567,0.32,0.768,0.55
		c0.207,0.215,0.322,0.469,0.444,0.767c0.107,0.286,0.176,0.616,0.176,0.968c0,0.323-0.068,0.631-0.146,0.905
		c-0.101,0.269-0.231,0.508-0.414,0.714c-0.169,0.207-0.361,0.391-0.63,0.522c-0.214,0.169-0.489,0.291-0.79,0.384
		c0.169,0.091,0.322,0.176,0.437,0.299c0.155,0.107,0.285,0.229,0.416,0.408c0.091,0.144,0.223,0.33,0.323,0.528
		c0.098,0.176,0.205,0.423,0.32,0.682l0.892,2.227c0.068,0.183,0.122,0.33,0.145,0.391
		C701.412,89.739,701.419,89.808,701.419,89.832"/>
	<path clip-path="url(#SVGID_2_)" fill="#FAB718" d="M16.489,110.934c4.52-0.553,8.739-0.973,7.551,0.53
		c-26.85,41.305,164.776-9.108,277.383-60.519c0.721,1.249-3.677,6.928-6.838,11.54C155.407,118.07-61.588,172.743,16.489,110.934
		 M22.781,141.083c4.527-0.516,8.71-0.943,7.551,0.521c-26.865,41.313,164.784-9.094,277.375-60.49
		c0.729,1.198-3.683,6.938-6.82,11.563C161.675,148.258-55.311,202.905,22.781,141.083 M36.309,170.356
		c4.527-0.545,8.725-0.967,7.551,0.514c-26.865,41.299,164.769-9.123,277.399-60.496c0.697,1.197-3.705,6.937-6.853,11.557
		C175.213,177.516-41.783,232.165,36.309,170.356"/>
	<path clip-path="url(#SVGID_2_)" fill="#528BC9" d="M339.851,206.483h11.125h28.484h58.279l5.494-30.809h-58.271l3.691-20.443
		h47.766l5.51-30.815h-47.775l3.208-17.879h58.485l5.511-30.786h-58.502h-28.246h-11.354l-23.404,130.73V206.483z M512.826,160.84
		l4.635-27.729h59.154l-13.592,72.741h-19.852l-2.301-12.836c-39.28,33.545-99.962,11.615-84.984-53.369
		c7.835-34.077,27.518-67.046,75.591-67.28c29.781-0.153,50.024,17.994,46.416,48.189l-38.626,2.348
		c-1.197-8.941-1.373-20.012-15.072-20.489c-27.446-0.928-40.415,75.992-12.683,75.826c12.6-0.063,17.127-6.422,21.686-17.404
		h-20.374L512.826,160.84z"/>
</g>
<polygon fill="#528BC9" points="378.165,0 381.824,0 376.753,26.481 388.731,26.481 388.109,29.672 372.546,29.672 "/>
<g>
	<defs>
		<rect id="SVGID_3_" width="708.067" height="268.022"/>
	</defs>
	<clipPath id="SVGID_4_">
		<use xlink:href="#SVGID_3_"  overflow="visible"/>
	</clipPath>
	<path clip-path="url(#SVGID_4_)" fill="#528BC9" d="M411.16,18.299c0,6.561-4.666,13.384-11.787,13.384
		c-5.332,0-8.341-3.96-8.341-8.756c0-6.989,4.903-13.505,11.81-13.505C408.62,9.422,411.16,13.773,411.16,18.299 M394.816,22.797
		c0,3.469,1.909,5.977,5.048,5.977c4.305,0,7.551-5.532,7.551-10.519c0-2.449-1.144-5.925-4.957-5.925
		C397.885,12.331,394.784,17.917,394.816,22.797"/>
	<path clip-path="url(#SVGID_4_)" fill="#528BC9" d="M414.105,36.095c1.267,0.822,3.386,1.42,5.61,1.42
		c3.576,0,6.407-1.85,7.681-7.604l0.706-3.169h-0.122c-1.857,3.039-4.466,4.528-7.415,4.528c-4.265,0-6.46-3.599-6.46-7.39
		c-0.054-7.229,5.266-14.396,13.506-14.396c2.479,0,5.165,0.699,6.813,1.497L431.18,28.59c-0.875,4.483-2.073,7.62-4.322,9.493
		c-2.109,1.872-4.97,2.402-7.426,2.402c-2.594,0-5.043-0.638-6.378-1.505L414.105,36.095z M430.419,13.129
		c-0.667-0.284-1.979-0.707-3.507-0.707c-5.354,0-8.977,5.557-9.031,10.844c0,2.332,0.837,5.087,4.098,5.087
		c3.131,0,6.346-3.96,7.074-8.142L430.419,13.129z"/>
	<path clip-path="url(#SVGID_4_)" fill="#528BC9" d="M436.973,31.254l4.074-21.324h3.66l-4.098,21.324H436.973z M443.771,6.3
		c-1.244,0-2.08-0.958-2.08-2.31c0.063-1.396,1.122-2.447,2.441-2.447c1.328,0,2.156,0.975,2.156,2.286
		c-0.031,1.459-1.075,2.471-2.456,2.471H443.771z"/>
	<path clip-path="url(#SVGID_4_)" fill="#528BC9" d="M447.224,27.555c0.998,0.606,2.854,1.327,4.589,1.327
		c2.464,0,4.043-1.581,4.043-3.461c0-1.687-0.751-2.701-2.953-3.928c-2.464-1.374-3.828-3.247-3.828-5.41
		c0-3.767,3.215-6.606,7.703-6.606c1.934,0,3.659,0.529,4.436,1.05l-0.997,2.779c-0.745-0.445-2.134-0.99-3.7-0.99
		c-2.208,0-3.797,1.374-3.797,3.239c0,1.542,1.005,2.493,2.907,3.537c2.38,1.381,4.014,3.237,4.014,5.625
		c0,4.481-3.646,7.02-8.157,7.02c-2.286-0.016-4.327-0.745-5.279-1.496L447.224,27.555z"/>
	<path clip-path="url(#SVGID_4_)" fill="#528BC9" d="M472.854,4.842l-0.976,5.087h5.126l-0.582,2.901h-5.104l-1.98,10.314
		c-0.223,1.203-0.398,2.332-0.398,3.398c0,1.281,0.629,2.08,2.026,2.08c0.599,0,1.228-0.047,1.719-0.169l-0.185,2.885
		c-0.659,0.222-1.757,0.391-2.824,0.391c-3.237,0-4.481-1.965-4.481-4.143c0-1.221,0.132-2.44,0.438-3.99l2.11-10.766h-3.093
		l0.614-2.901h3.023l0.76-3.914L472.854,4.842z"/>
	<path clip-path="url(#SVGID_4_)" fill="#528BC9" d="M477.234,31.254l4.093-21.324h3.666l-4.104,21.324H477.234z M484.056,6.3
		c-1.242,0-2.072-0.958-2.072-2.31c0.023-1.396,1.09-2.447,2.434-2.447c1.312,0,2.156,0.975,2.156,2.286
		c-0.061,1.459-1.081,2.471-2.464,2.471H484.056z"/>
	<path clip-path="url(#SVGID_4_)" fill="#528BC9" d="M501.935,30.394c-1.104,0.523-3.322,1.312-6.16,1.312
		c-5.503,0-8.196-3.72-8.196-8.249c0-7.273,5.371-13.958,13.036-13.958c1.973,0,3.8,0.569,4.459,0.899l-1.083,2.924
		c-0.843-0.392-2.024-0.776-3.605-0.776c-5.547,0-9.032,5.44-9.032,10.436c0,3.452,1.835,5.686,5.302,5.686
		c2.149,0,3.831-0.652,4.936-1.183L501.935,30.394z"/>
	<path clip-path="url(#SVGID_4_)" fill="#528BC9" d="M506.233,27.555c1.02,0.606,2.869,1.327,4.588,1.327
		c2.457,0,4.053-1.581,4.053-3.461c0-1.687-0.776-2.701-2.94-3.928c-2.486-1.374-3.859-3.247-3.859-5.41
		c0-3.767,3.231-6.606,7.712-6.606c1.934,0,3.637,0.529,4.435,1.05l-1.005,2.779c-0.76-0.445-2.103-0.99-3.691-0.99
		c-2.209,0-3.798,1.374-3.798,3.239c0,1.542,1.014,2.493,2.908,3.537c2.396,1.381,4.014,3.237,4.014,5.625
		c0,4.481-3.652,7.02-8.141,7.02c-2.302-0.016-4.328-0.745-5.304-1.496L506.233,27.555z"/>
	<path clip-path="url(#SVGID_4_)" fill="#528BC9" d="M531.094,26.71c1.596,1.037,3.853,1.88,6.284,1.88
		c3.369,0,6.454-1.987,6.454-5.601c0-2.195-1.281-3.798-4.366-5.549c-3.791-2.016-5.916-4.404-5.916-7.619
		c0-5.272,4.589-8.693,10.052-8.693c2.831,0,5.012,0.881,6.07,1.558l-1.313,2.969c-0.936-0.545-2.77-1.412-5.164-1.373
		c-3.646,0-5.855,2.432-5.855,4.857c0,2.401,1.527,3.789,4.574,5.493c3.676,1.911,5.693,4.283,5.693,7.92
		c0,5.148-4.059,9.192-10.698,9.192c-3.006-0.015-5.9-1.02-7.135-2.049L531.094,26.71z"/>
	<path clip-path="url(#SVGID_4_)" fill="#528BC9" d="M571.901,18.299c0,6.561-4.682,13.384-11.795,13.384
		c-5.324,0-8.316-3.96-8.316-8.756c0-6.989,4.903-13.505,11.793-13.505C569.369,9.422,571.901,13.773,571.901,18.299
		 M555.572,22.797c0,3.469,1.896,5.977,5.004,5.977c4.327,0,7.58-5.532,7.58-10.519c0-2.449-1.119-5.925-4.972-5.925
		C558.603,12.331,555.51,17.917,555.572,22.797"/>
</g>
<polygon fill="#528BC9" points="580.402,-1.543 574.45,29.696 578.063,29.696 584.04,-1.543 "/>
<g>
	<defs>
		<rect id="SVGID_5_" width="708.067" height="268.022"/>
	</defs>
	<clipPath id="SVGID_6_">
		<use xlink:href="#SVGID_5_"  overflow="visible"/>
	</clipPath>
	<path clip-path="url(#SVGID_6_)" fill="#528BC9" d="M605.295,9.906l-2.862,15.117c-0.445,2.379-0.751,4.427-0.976,6.207h-3.307
		l0.6-3.99h-0.116c-1.895,2.762-4.703,4.466-7.527,4.466c-2.723,0-5.57-1.312-5.57-6.148c0-1.012,0.139-2.171,0.4-3.559
		l2.285-12.093h3.646l-2.271,11.917c-0.229,1.159-0.376,2.187-0.376,3.1c0,2.21,0.912,3.713,3.437,3.713
		c2.655,0,6.023-3.076,6.913-7.795l2.065-10.935H605.295z"/>
	<path clip-path="url(#SVGID_6_)" fill="#528BC9" d="M617.113,4.842l-0.951,5.087h5.095l-0.575,2.901h-5.118l-1.98,10.314
		c-0.223,1.203-0.391,2.332-0.391,3.398c0,1.281,0.621,2.08,2.033,2.08c0.614,0,1.205-0.047,1.694-0.169l-0.168,2.885
		c-0.644,0.222-1.733,0.391-2.8,0.391c-3.277,0-4.513-1.965-4.513-4.143c0-1.221,0.138-2.44,0.438-3.99l2.125-10.766h-3.085
		l0.584-2.901h3.031l0.76-3.914L617.113,4.842z"/>
	<path clip-path="url(#SVGID_6_)" fill="#528BC9" d="M621.423,31.254l4.075-21.324h3.669l-4.099,21.324H621.423z M628.239,6.3
		c-1.252,0-2.072-0.958-2.072-2.31c0.061-1.396,1.104-2.447,2.441-2.447c1.318,0,2.124,0.975,2.124,2.286
		c-0.046,1.459-1.044,2.471-2.479,2.471H628.239z"/>
	<path clip-path="url(#SVGID_6_)" fill="#528BC9" d="M651.934,18.299c0,6.561-4.666,13.384-11.795,13.384
		c-5.331,0-8.309-3.96-8.309-8.756c0-6.989,4.878-13.505,11.785-13.505C649.402,9.422,651.934,13.773,651.934,18.299
		 M635.605,22.797c0,3.469,1.895,5.977,5.033,5.977c4.29,0,7.583-5.532,7.583-10.519c0-2.449-1.151-5.925-5.004-5.925
		C638.651,12.331,635.566,17.917,635.605,22.797"/>
	<path clip-path="url(#SVGID_6_)" fill="#528BC9" d="M654.482,31.238l2.854-15.102c0.483-2.362,0.744-4.449,1.028-6.222h3.231
		l-0.516,4.205h0.101c1.889-2.994,4.757-4.666,7.881-4.666c2.547,0,5.401,1.459,5.401,5.94c0,0.936-0.169,2.285-0.413,3.461
		l-2.356,12.384h-3.661l2.348-12.269c0.17-0.853,0.308-1.873,0.308-2.748c0-2.149-0.844-3.752-3.338-3.752
		c-2.615,0-6.292,3.146-7.261,8.409l-1.962,10.36H654.482z"/>
	<path clip-path="url(#SVGID_6_)" fill="#528BC9" d="M678.192,27.555c1.021,0.606,2.87,1.327,4.596,1.327
		c2.442,0,4.029-1.581,4.029-3.461c0-1.687-0.744-2.701-2.946-3.928c-2.479-1.374-3.838-3.247-3.838-5.41
		c0-3.767,3.217-6.606,7.713-6.606c1.934,0,3.652,0.529,4.451,1.05l-1.021,2.779c-0.744-0.445-2.095-0.99-3.691-0.99
		c-2.193,0-3.774,1.374-3.774,3.239c0,1.542,1.004,2.493,2.892,3.537c2.373,1.381,3.992,3.237,3.992,5.625
		c0,4.481-3.638,7.02-8.111,7.02c-2.317-0.016-4.329-0.745-5.316-1.496L678.192,27.555z"/>
	<path clip-path="url(#SVGID_6_)" fill="#528BC9" d="M109.927,126.158c-3.039,0.753-6.039,1.511-9.023,2.226
		c0.498,5.693,1.258,11.425,2.317,17.156c3.023-0.629,6.099-1.342,9.245-2.07C111.293,137.76,110.44,131.958,109.927,126.158
		 M115.788,156.413c-3.207,0.814-6.353,1.582-9.49,2.342c1.658,5.977,3.636,11.641,5.9,16.996c3.238-0.676,6.568-1.404,9.961-2.148
		C119.772,168.2,117.646,162.483,115.788,156.413 M132.134,0.031h-6.93c0,0-25.86,54.327-25.014,114.601
		c2.931-0.636,5.901-1.303,8.947-2.025C108.061,55.079,132.134,0.031,132.134,0.031 M128.243,185.932
		c-3.361,0.836-6.684,1.643-9.944,2.434c38.527,69.834,125.589,79.656,125.589,79.656h29.788
		C273.676,268.022,172.503,265.176,128.243,185.932"/>
	<path clip-path="url(#SVGID_6_)" fill="#FAB718" d="M705.838,85.009c0,4.401-3.528,7.968-7.882,7.968
		c-4.353,0-7.883-3.567-7.883-7.968s3.53-7.968,7.883-7.968C702.31,77.041,705.838,80.608,705.838,85.009 M708.066,85.009
		c0-5.584-4.525-10.109-10.109-10.109s-10.109,4.525-10.109,10.109s4.525,10.109,10.109,10.109S708.066,90.593,708.066,85.009"/>
</g>
</svg>
